<?xml version="1.0" encoding="utf-8"?>
<!-- Generator: Adobe Illustrator 26.0.1, SVG Export Plug-In . SVG Version: 6.00 Build 0)  -->
<svg version="1.1" id="Layer_1" xmlns="http://www.w3.org/2000/svg" xmlns:xlink="http://www.w3.org/1999/xlink" x="0px" y="0px"
	 viewBox="0 0 157 40" style="enable-background:new 0 0 157 40;" xml:space="preserve">
<style type="text/css">
	.st0{fill:#FCBB15;}
	.st1{fill:#F9F9F9;}
</style>
<g>
	<g>
		<g>
			<g>
				<path class="st0" d="M1.52,19.44c0,0,0-11.81,0-11.81c0-0.12,2.46-0.13,2.62-0.12c1.67,0.04,3.43,0.28,4.93,1.07
					c3.07,1.62,3.58,6.31,1.24,8.78C8.13,19.65,4.43,19.71,1.52,19.44z"/>
				<path class="st0" d="M32.54,1.41c-0.95-0.04-1.9-0.03-2.86-0.03c-1.51,0-3.02,0-4.53,0c-1.81,0-3.63,0-5.44,0
					c-1.77,0-3.54,0-5.31,0c-1.38,0-2.77,0-4.15,0c-0.66,0-1.31,0-1.97,0c-0.01,0-0.03,0-0.04,0c6.49,0,11.63,4.28,11.96,10.88
					c0.2,3.96-1.51,7.88-4.65,10.32c-3.73,2.91-9.46,3.22-14.03,3.24c0,4.27,0,8.53,0,12.8c0.41,0,0.82,0,1.22,0
					c1.08,0,2.16,0,3.24,0c1.54,0,3.08,0,4.62,0c1.78,0,3.57,0,5.35,0c1.82,0,3.63,0,5.45,0c1.63,0,3.27,0,4.9,0
					c1.24,0,2.48,0,3.72,0c1.97,0,3.87-0.14,5.77-0.69c1.19-0.34,2.35-0.79,3.45-1.34c1.32-0.66,2.55-1.48,3.66-2.45
					c1.28-1.12,2.37-2.44,3.25-3.89c1.05-1.75,1.76-3.68,2.2-5.66c0.36-1.65,0.54-3.34,0.57-5.03c0.01-0.29,0.04-0.58,0.04-0.87
					c0.01-0.76-0.03-1.53-0.1-2.29c-0.11-1.08-0.3-2.15-0.59-3.19c-0.33-1.24-0.8-2.45-1.4-3.59c-0.68-1.27-1.53-2.45-2.55-3.47
					c-1.17-1.17-2.55-2.13-4.04-2.85c-1.84-0.89-3.84-1.43-5.87-1.71C33.79,1.49,33.16,1.44,32.54,1.41z M38.14,26.81
					c-1.88,2.95-5.21,4.38-8.56,4.85c-0.32,0.05-5.42,0.39-5.42,0.04c0-0.02,0-23.19,0-23.19c0-0.16,3.35-0.22,3.69-0.21
					c3.88,0.06,7.94,1.22,10.21,4.59C40.64,16.74,40.61,22.91,38.14,26.81z"/>
			</g>
			<g>
				<g id="PRO_DEVS__x28__font:_Nexa__x29__00000026846720674204437320000003828971811172043919_">
					<path class="st0" d="M64.39,12.07c0.78,0.4,1.39,0.96,1.82,1.7s0.64,1.6,0.64,2.58c0,0.98-0.21,1.85-0.64,2.58
						c-0.43,0.74-1.03,1.31-1.82,1.7c-0.78,0.4-1.7,0.59-2.75,0.59h-3.32v3.85h-3.19v-13.6h6.51
						C62.69,11.47,63.61,11.67,64.39,12.07z M63.09,17.89c0.4-0.38,0.59-0.88,0.59-1.52s-0.2-1.14-0.59-1.52
						c-0.4-0.38-0.93-0.56-1.6-0.56H58.3v4.16h3.19C62.16,18.45,62.69,18.26,63.09,17.89z"/>
					<path class="st0" d="M73.73,20.59h-1.85v4.49H68.7v-13.6h6.63c0.98,0,1.85,0.19,2.58,0.57c0.74,0.38,1.31,0.92,1.71,1.62
						c0.4,0.7,0.6,1.5,0.6,2.41c0,1.04-0.27,1.92-0.81,2.66c-0.54,0.74-1.3,1.26-2.28,1.57l3.85,4.76h-3.79L73.73,20.59z
						 M76.52,14.7c-0.37-0.34-0.89-0.5-1.56-0.5h-3.09v3.83h3.09c0.69,0,1.21-0.17,1.57-0.5c0.36-0.33,0.54-0.8,0.54-1.41
						S76.89,15.04,76.52,14.7z"/>
					<path class="st0" d="M85.38,24.52c-1.11-0.59-1.96-1.42-2.56-2.5s-0.9-2.33-0.9-3.75c0-1.42,0.3-2.67,0.9-3.75
						c0.6-1.08,1.46-1.91,2.56-2.5c1.11-0.59,2.39-0.88,3.86-0.88s2.75,0.29,3.86,0.88c1.11,0.59,1.96,1.42,2.57,2.5
						c0.6,1.08,0.9,2.33,0.9,3.75c0,1.43-0.3,2.68-0.9,3.75s-1.46,1.91-2.57,2.5c-1.11,0.59-2.39,0.88-3.86,0.88
						S86.49,25.11,85.38,24.52z M91.4,22.04c0.63-0.36,1.11-0.86,1.46-1.51c0.34-0.65,0.51-1.4,0.51-2.25
						c0-0.85-0.17-1.61-0.51-2.25c-0.34-0.65-0.83-1.15-1.46-1.51c-0.63-0.36-1.35-0.53-2.17-0.53c-0.82,0-1.54,0.18-2.16,0.53
						c-0.62,0.36-1.11,0.86-1.45,1.51c-0.34,0.65-0.51,1.4-0.51,2.25c0,0.86,0.17,1.61,0.51,2.25c0.34,0.65,0.83,1.15,1.45,1.51
						c0.62,0.36,1.34,0.53,2.16,0.53C90.05,22.57,90.77,22.39,91.4,22.04z"/>
					<path class="st0" d="M103.62,11.45h4.96c1.12,0,2.12,0.19,3.01,0.56s1.61,0.88,2.16,1.52c0.54,0.64,0.96,1.34,1.24,2.13
						s0.43,1.6,0.43,2.46c0,0.89-0.14,1.75-0.41,2.56c-0.27,0.81-0.68,1.55-1.21,2.22c-0.54,0.67-1.26,1.2-2.16,1.59
						c-0.9,0.4-1.92,0.59-3.06,0.59h-4.96V11.47V11.45z M112.41,21.82c0.88-1.04,1.31-2.28,1.31-3.72c0-1.37-0.45-2.55-1.34-3.54
						c-0.89-0.98-2.16-1.48-3.81-1.48h-3.27v10.3h3.27C110.26,23.39,111.54,22.86,112.41,21.82z"/>
					<path class="st0" d="M118.19,11.47h9.56v1.56h-7.89v4.26h7.56v1.57h-7.56v4.61h8.2v1.61h-9.88V11.47z"/>
					<path class="st0" d="M131.31,11.47l4.65,11.63l4.68-11.63h1.87l-5.62,13.65h-1.83l-5.64-13.65H131.31z"/>
					<path class="st0" d="M151.35,13.15c-0.7-0.29-1.45-0.44-2.25-0.46c-0.97,0-1.81,0.2-2.52,0.59c-0.71,0.4-1.06,0.98-1.06,1.74
						c0,0.35,0.09,0.65,0.27,0.91c0.18,0.26,0.46,0.47,0.84,0.64c0.38,0.17,0.75,0.3,1.14,0.4c0.38,0.1,0.87,0.19,1.45,0.28
						c0.67,0.1,1.22,0.2,1.63,0.29c0.42,0.09,0.89,0.24,1.43,0.44c0.54,0.2,0.96,0.43,1.25,0.69s0.55,0.61,0.77,1.06
						c0.21,0.45,0.32,0.97,0.32,1.56c0,0.73-0.17,1.36-0.5,1.91c-0.33,0.54-0.77,0.97-1.32,1.26s-1.14,0.52-1.76,0.66
						s-1.28,0.21-1.96,0.21c-1.3,0-2.46-0.26-3.48-0.77c-1.02-0.51-1.78-1.31-2.27-2.38l1.4-0.82c0.41,0.76,1.03,1.35,1.84,1.77
						c0.81,0.42,1.66,0.62,2.54,0.62c0.45,0,0.89-0.04,1.31-0.12c0.42-0.08,0.83-0.21,1.22-0.39c0.4-0.18,0.71-0.44,0.95-0.79
						c0.24-0.34,0.36-0.76,0.36-1.24c0-0.4-0.1-0.75-0.3-1.05c-0.2-0.3-0.5-0.54-0.9-0.72c-0.4-0.18-0.81-0.32-1.21-0.43
						s-0.91-0.2-1.51-0.29c-0.62-0.09-1.14-0.18-1.56-0.28c-0.42-0.1-0.88-0.24-1.37-0.43s-0.89-0.41-1.19-0.66
						c-0.3-0.25-0.55-0.58-0.75-0.99c-0.2-0.41-0.3-0.88-0.3-1.41c-0.01-0.67,0.14-1.27,0.46-1.78c0.32-0.51,0.74-0.91,1.26-1.2
						c0.52-0.29,1.08-0.5,1.67-0.63c0.59-0.14,1.2-0.2,1.82-0.2c1.17,0,2.18,0.17,3.03,0.52s1.56,1,2.12,1.94l-1.28,0.8
						C152.57,13.87,152.04,13.44,151.35,13.15z"/>
				</g>
				<g>
					<path class="st1" d="M55.23,29.05h0.61v0.29h-0.62v1.08c0,0.26,0.1,0.39,0.31,0.39c0.09,0,0.18-0.02,0.28-0.07l0.1,0.28
						c-0.13,0.06-0.26,0.1-0.38,0.1c-0.42,0.01-0.62-0.22-0.62-0.7v-1.08h-0.4v-0.29h0.4v-0.56l0.33-0.04V29.05z"/>
					<path class="st1" d="M59.03,30.76c-0.1,0.12-0.22,0.21-0.38,0.27c-0.15,0.06-0.31,0.09-0.48,0.09c-0.31,0-0.56-0.1-0.75-0.29
						s-0.29-0.45-0.29-0.78c0-0.31,0.1-0.56,0.29-0.76c0.19-0.2,0.44-0.3,0.74-0.3c0.32,0,0.57,0.1,0.76,0.31s0.26,0.5,0.23,0.89
						h-1.68c0.02,0.18,0.09,0.33,0.23,0.44c0.13,0.11,0.3,0.17,0.49,0.17c0.12,0,0.24-0.02,0.35-0.07c0.12-0.04,0.21-0.11,0.27-0.19
						L59.03,30.76L59.03,30.76z M58.83,29.92c-0.01-0.2-0.07-0.35-0.19-0.45s-0.28-0.16-0.48-0.16c-0.18,0-0.33,0.05-0.46,0.16
						c-0.13,0.11-0.21,0.26-0.24,0.45L58.83,29.92L58.83,29.92z"/>
					<path class="st1" d="M62.23,31.1l-0.01-0.37c-0.07,0.14-0.18,0.24-0.31,0.31s-0.27,0.11-0.42,0.11c-0.29,0-0.53-0.1-0.72-0.29
						s-0.29-0.45-0.29-0.78c0-0.32,0.1-0.58,0.29-0.77c0.19-0.19,0.44-0.29,0.73-0.28c0.15,0,0.29,0.04,0.43,0.11s0.23,0.17,0.3,0.3
						l0-0.37h0.32v2.04L62.23,31.1L62.23,31.1z M61.51,29.33c-0.2,0-0.37,0.07-0.5,0.2c-0.14,0.14-0.2,0.32-0.2,0.54
						c0,0.22,0.07,0.4,0.2,0.54c0.14,0.14,0.3,0.21,0.5,0.21c0.13,0,0.25-0.03,0.35-0.08c0.1-0.06,0.18-0.13,0.23-0.22
						c0.05-0.09,0.09-0.18,0.12-0.29s0.02-0.21,0-0.32c-0.02-0.11-0.06-0.2-0.12-0.29c-0.05-0.09-0.13-0.16-0.23-0.21
						C61.76,29.36,61.64,29.33,61.51,29.33L61.51,29.33z"/>
					<path class="st1" d="M64.16,29.05h0.3l0.02,0.3c0.06-0.11,0.14-0.2,0.24-0.25c0.1-0.05,0.22-0.08,0.34-0.08
						c0.15,0,0.28,0.04,0.4,0.11c0.12,0.07,0.21,0.19,0.26,0.34c0.07-0.15,0.17-0.26,0.29-0.33c0.12-0.08,0.26-0.11,0.41-0.11
						c0.26,0,0.46,0.08,0.61,0.24c0.15,0.16,0.22,0.38,0.22,0.67v1.17h-0.33v-1.17c0-0.17-0.05-0.31-0.14-0.42
						c-0.09-0.11-0.22-0.17-0.37-0.17c-0.16,0-0.29,0.06-0.39,0.17s-0.15,0.26-0.15,0.43v1.16h-0.33v-1.16
						c0-0.17-0.05-0.31-0.15-0.43c-0.1-0.11-0.23-0.17-0.39-0.17c-0.16,0-0.29,0.06-0.39,0.17s-0.15,0.26-0.15,0.43v1.16h-0.33
						L64.16,29.05L64.16,29.05z"/>
					<path class="st1" d="M71.02,29.3c0.19-0.2,0.44-0.3,0.73-0.3c0.3,0,0.55,0.1,0.74,0.3c0.19,0.2,0.29,0.46,0.29,0.77
						c0,0.31-0.1,0.56-0.29,0.76c-0.19,0.2-0.44,0.3-0.74,0.3c-0.3,0-0.54-0.1-0.73-0.3c-0.19-0.2-0.29-0.45-0.29-0.76
						C70.73,29.76,70.83,29.5,71.02,29.3z M72.26,29.52c-0.13-0.14-0.3-0.21-0.5-0.21c-0.2,0-0.37,0.07-0.5,0.21s-0.2,0.32-0.2,0.55
						c0,0.22,0.07,0.39,0.2,0.53c0.13,0.14,0.3,0.21,0.5,0.21s0.37-0.07,0.5-0.21c0.13-0.14,0.2-0.31,0.2-0.53
						C72.46,29.85,72.39,29.67,72.26,29.52z"/>
					<path class="st1" d="M74.44,31.09v-1.72h-0.39v-0.3h0.39v-0.16c0-0.23,0.06-0.42,0.18-0.54c0.12-0.13,0.28-0.19,0.49-0.19
						c0.16,0,0.31,0.05,0.45,0.15l-0.14,0.25c-0.11-0.07-0.21-0.1-0.3-0.1c-0.23,0-0.35,0.15-0.35,0.44v0.16h0.62v0.3h-0.62v1.72
						L74.44,31.09L74.44,31.09z"/>
					<path class="st1" d="M78.69,29.05H79l0.02,0.39c0.08-0.13,0.18-0.24,0.32-0.32s0.28-0.11,0.44-0.11c0.29,0,0.52,0.1,0.71,0.3
						c0.18,0.19,0.28,0.45,0.28,0.76c0,0.32-0.09,0.58-0.28,0.77s-0.43,0.29-0.73,0.29c-0.15,0-0.3-0.04-0.43-0.1
						c-0.14-0.07-0.24-0.17-0.32-0.31v1.33h-0.32V29.05z M80.23,30.62c0.13-0.13,0.2-0.31,0.2-0.54c0-0.23-0.06-0.4-0.19-0.54
						c-0.13-0.13-0.3-0.2-0.5-0.2c-0.21,0-0.37,0.07-0.5,0.21s-0.19,0.31-0.19,0.53c0,0.21,0.07,0.38,0.2,0.52
						c0.13,0.14,0.3,0.21,0.5,0.21C79.94,30.82,80.1,30.75,80.23,30.62z"/>
					<path class="st1" d="M82.54,29.04l0.02,0.31c0.12-0.23,0.32-0.34,0.61-0.34c0.17-0.01,0.33,0.05,0.46,0.15l-0.15,0.29
						c-0.1-0.07-0.22-0.11-0.34-0.11c-0.16,0-0.3,0.06-0.41,0.17c-0.11,0.11-0.17,0.26-0.17,0.44v1.14h-0.33v-2.04L82.54,29.04
						L82.54,29.04z"/>
					<path class="st1" d="M85.05,29.3c0.19-0.2,0.44-0.3,0.73-0.3c0.3,0,0.55,0.1,0.74,0.3c0.19,0.2,0.29,0.46,0.29,0.77
						c0,0.31-0.1,0.56-0.29,0.76c-0.19,0.2-0.44,0.3-0.74,0.3c-0.3,0-0.54-0.1-0.73-0.3c-0.19-0.2-0.29-0.45-0.29-0.76
						C84.76,29.76,84.85,29.5,85.05,29.3z M86.28,29.52c-0.13-0.14-0.3-0.21-0.5-0.21c-0.2,0-0.37,0.07-0.5,0.21s-0.2,0.32-0.2,0.55
						c0,0.22,0.07,0.39,0.2,0.53c0.13,0.14,0.3,0.21,0.5,0.21s0.37-0.07,0.5-0.21s0.2-0.31,0.2-0.53
						C86.48,29.85,86.42,29.67,86.28,29.52z"/>
					<path class="st1" d="M88.47,31.09v-1.72h-0.39v-0.3h0.39v-0.16c0-0.23,0.06-0.42,0.18-0.54c0.12-0.13,0.28-0.19,0.49-0.19
						c0.16,0,0.31,0.05,0.45,0.15l-0.14,0.25c-0.11-0.07-0.21-0.1-0.3-0.1c-0.23,0-0.35,0.15-0.35,0.44v0.16h0.62v0.3h-0.62v1.72
						L88.47,31.09L88.47,31.09z"/>
					<path class="st1" d="M92.5,30.76c-0.1,0.12-0.22,0.21-0.38,0.27c-0.16,0.06-0.31,0.09-0.48,0.09c-0.31,0-0.56-0.1-0.75-0.29
						c-0.19-0.19-0.29-0.45-0.29-0.78c0-0.31,0.1-0.56,0.29-0.76c0.19-0.2,0.44-0.3,0.74-0.3c0.32,0,0.57,0.1,0.76,0.31
						s0.26,0.5,0.23,0.89h-1.68c0.02,0.18,0.09,0.33,0.23,0.44c0.13,0.11,0.3,0.17,0.49,0.17c0.12,0,0.24-0.02,0.35-0.07
						c0.12-0.04,0.21-0.11,0.27-0.19L92.5,30.76L92.5,30.76z M92.31,29.92c-0.01-0.2-0.07-0.35-0.19-0.45
						c-0.12-0.11-0.28-0.16-0.48-0.16c-0.18,0-0.33,0.05-0.46,0.16c-0.13,0.11-0.21,0.26-0.24,0.45L92.31,29.92L92.31,29.92z"/>
					<path class="st1" d="M95.34,29.5c-0.14-0.13-0.33-0.2-0.56-0.2c-0.14,0-0.26,0.02-0.35,0.07c-0.09,0.05-0.14,0.13-0.13,0.22
						c0,0.16,0.17,0.26,0.49,0.3c0.09,0.01,0.17,0.02,0.23,0.03c0.06,0.01,0.13,0.03,0.22,0.06c0.09,0.03,0.15,0.06,0.2,0.11
						c0.05,0.04,0.09,0.1,0.13,0.17s0.05,0.16,0.05,0.25c0,0.2-0.08,0.35-0.24,0.45c-0.16,0.11-0.35,0.16-0.59,0.16
						c-0.39,0-0.69-0.13-0.88-0.38l0.19-0.24c0.17,0.21,0.4,0.31,0.7,0.31c0.13,0,0.25-0.02,0.35-0.07c0.1-0.05,0.15-0.13,0.15-0.24
						c0-0.1-0.04-0.18-0.13-0.22s-0.22-0.08-0.4-0.1c-0.11-0.01-0.21-0.03-0.29-0.05c-0.08-0.02-0.16-0.05-0.24-0.1
						c-0.08-0.04-0.15-0.1-0.19-0.17s-0.07-0.16-0.07-0.27c0-0.14,0.04-0.25,0.12-0.35c0.08-0.09,0.18-0.16,0.3-0.2
						c0.12-0.04,0.24-0.06,0.38-0.05c0.31,0,0.56,0.09,0.75,0.27L95.34,29.5L95.34,29.5z"/>
					<path class="st1" d="M98.34,29.5c-0.14-0.13-0.33-0.2-0.56-0.2c-0.14,0-0.26,0.02-0.35,0.07c-0.09,0.05-0.14,0.13-0.13,0.22
						c0,0.16,0.17,0.26,0.49,0.3c0.09,0.01,0.17,0.02,0.23,0.03c0.06,0.01,0.13,0.03,0.22,0.06c0.09,0.03,0.15,0.06,0.2,0.11
						c0.05,0.04,0.09,0.1,0.13,0.17s0.05,0.16,0.05,0.25c0,0.2-0.08,0.35-0.24,0.45c-0.16,0.11-0.35,0.16-0.59,0.16
						c-0.39,0-0.69-0.13-0.88-0.38l0.19-0.24c0.17,0.21,0.4,0.31,0.7,0.31c0.13,0,0.25-0.02,0.35-0.07c0.1-0.05,0.15-0.13,0.15-0.24
						c0-0.1-0.04-0.18-0.13-0.22s-0.22-0.08-0.4-0.1c-0.11-0.01-0.21-0.03-0.29-0.05c-0.08-0.02-0.16-0.05-0.24-0.1
						c-0.08-0.04-0.15-0.1-0.19-0.17s-0.07-0.16-0.07-0.27c0-0.14,0.04-0.25,0.12-0.35c0.08-0.09,0.18-0.16,0.3-0.2
						c0.12-0.04,0.24-0.06,0.38-0.05c0.31,0,0.56,0.09,0.75,0.27L98.34,29.5L98.34,29.5z"/>
					<path class="st1" d="M100.13,28.22c0.07-0.04,0.14-0.04,0.22,0c0.07,0.04,0.11,0.1,0.11,0.2s-0.04,0.16-0.11,0.2
						c-0.07,0.04-0.14,0.04-0.22,0c-0.07-0.04-0.11-0.1-0.11-0.2S100.06,28.26,100.13,28.22z M100.07,31.09h0.33v-2.05h-0.33V31.09z
						"/>
					<path class="st1" d="M102.16,29.3c0.19-0.2,0.44-0.3,0.73-0.3c0.3,0,0.55,0.1,0.74,0.3c0.19,0.2,0.29,0.46,0.29,0.77
						c0,0.31-0.1,0.56-0.29,0.76c-0.19,0.2-0.44,0.3-0.74,0.3c-0.3,0-0.54-0.1-0.73-0.3c-0.19-0.2-0.29-0.45-0.29-0.76
						C101.87,29.76,101.97,29.5,102.16,29.3z M103.4,29.52c-0.13-0.14-0.3-0.21-0.5-0.21c-0.2,0-0.37,0.07-0.5,0.21
						s-0.2,0.32-0.2,0.55c0,0.22,0.07,0.39,0.2,0.53c0.13,0.14,0.3,0.21,0.5,0.21s0.37-0.07,0.5-0.21s0.2-0.31,0.2-0.53
						C103.6,29.85,103.53,29.67,103.4,29.52z"/>
					<path class="st1" d="M105.4,29.04h0.3l0.02,0.33c0.17-0.24,0.39-0.36,0.68-0.36c0.26,0,0.46,0.08,0.63,0.25
						c0.16,0.17,0.24,0.4,0.24,0.69v1.13h-0.33v-1.12c0-0.2-0.05-0.35-0.16-0.47s-0.25-0.17-0.44-0.17c-0.18,0-0.32,0.07-0.44,0.19
						s-0.17,0.28-0.17,0.47v1.1h-0.32V29.04L105.4,29.04z"/>
					<path class="st1" d="M110.45,31.1l-0.01-0.37c-0.08,0.14-0.18,0.24-0.31,0.31c-0.13,0.07-0.27,0.11-0.42,0.11
						c-0.29,0-0.53-0.1-0.72-0.29c-0.19-0.19-0.29-0.45-0.29-0.78c0-0.32,0.1-0.58,0.29-0.77c0.19-0.19,0.43-0.29,0.73-0.28
						c0.15,0,0.29,0.04,0.43,0.11s0.23,0.17,0.3,0.3l0-0.37h0.32v2.04L110.45,31.1L110.45,31.1z M109.73,29.33
						c-0.2,0-0.37,0.07-0.5,0.2c-0.14,0.14-0.2,0.32-0.2,0.54c0,0.22,0.07,0.4,0.2,0.54c0.14,0.14,0.3,0.21,0.5,0.21
						c0.13,0,0.25-0.03,0.35-0.08c0.1-0.06,0.18-0.13,0.23-0.22c0.05-0.09,0.09-0.18,0.12-0.29c0.02-0.11,0.02-0.21,0-0.32
						c-0.02-0.11-0.06-0.2-0.12-0.29c-0.05-0.09-0.13-0.16-0.23-0.21C109.98,29.36,109.87,29.33,109.73,29.33L109.73,29.33z"/>
					<path class="st1" d="M112.73,31.09h-0.33v-2.89h0.33V31.09z"/>
					<path class="st1" d="M116.45,28.19h0.35v2.89h-0.35V28.19z"/>
					<path class="st1" d="M118.24,28.52v-0.32h2.25v0.32h-0.96v2.57h-0.34v-2.57H118.24z"/>
					<path class="st1" d="M125.71,28.19v2.89h-0.31l-0.02-0.37c-0.08,0.13-0.18,0.24-0.31,0.31s-0.27,0.11-0.43,0.11
						c-0.29,0-0.53-0.09-0.72-0.28c-0.19-0.19-0.28-0.45-0.28-0.78c0-0.33,0.09-0.59,0.28-0.78c0.19-0.19,0.42-0.28,0.72-0.28
						c0.15,0,0.29,0.04,0.43,0.11s0.24,0.17,0.31,0.3v-1.22L125.71,28.19L125.71,28.19z M124.67,29.32c-0.2,0-0.37,0.07-0.5,0.2
						c-0.13,0.13-0.2,0.31-0.2,0.54c0,0.23,0.07,0.41,0.2,0.54c0.13,0.13,0.3,0.2,0.5,0.2c0.2,0,0.37-0.07,0.5-0.21
						c0.13-0.14,0.2-0.32,0.2-0.54c0-0.22-0.07-0.39-0.2-0.53C125.03,29.39,124.87,29.32,124.67,29.32L124.67,29.32z"/>
					<path class="st1" d="M129.08,30.76c-0.1,0.12-0.22,0.21-0.38,0.27c-0.16,0.06-0.31,0.09-0.48,0.09c-0.31,0-0.56-0.1-0.75-0.29
						c-0.19-0.19-0.29-0.45-0.29-0.78c0-0.31,0.1-0.56,0.29-0.76c0.19-0.2,0.44-0.3,0.74-0.3c0.32,0,0.57,0.1,0.76,0.31
						s0.26,0.5,0.23,0.89h-1.68c0.02,0.18,0.09,0.33,0.23,0.44c0.13,0.11,0.3,0.17,0.49,0.17c0.12,0,0.24-0.02,0.35-0.07
						c0.12-0.04,0.21-0.11,0.27-0.19L129.08,30.76L129.08,30.76z M128.89,29.92c-0.01-0.2-0.07-0.35-0.19-0.45
						c-0.12-0.11-0.28-0.16-0.48-0.16c-0.18,0-0.33,0.05-0.46,0.16c-0.13,0.11-0.21,0.26-0.24,0.45L128.89,29.92L128.89,29.92z"/>
					<path class="st1" d="M130.75,29.04l0.32,0.8l0.34,0.89l0.33-0.88l0.32-0.8h0.36l-0.83,2.05h-0.36l-0.83-2.05H130.75z"/>
					<path class="st1" d="M135.51,30.76c-0.1,0.12-0.22,0.21-0.38,0.27c-0.16,0.06-0.31,0.09-0.48,0.09c-0.31,0-0.56-0.1-0.75-0.29
						c-0.19-0.19-0.29-0.45-0.29-0.78c0-0.31,0.1-0.56,0.29-0.76c0.19-0.2,0.44-0.3,0.74-0.3c0.32,0,0.57,0.1,0.76,0.31
						s0.26,0.5,0.23,0.89h-1.68c0.02,0.18,0.09,0.33,0.23,0.44c0.13,0.11,0.3,0.17,0.49,0.17c0.12,0,0.24-0.02,0.35-0.07
						c0.12-0.04,0.21-0.11,0.27-0.19L135.51,30.76L135.51,30.76z M135.32,29.92c-0.01-0.2-0.07-0.35-0.19-0.45
						c-0.12-0.11-0.28-0.16-0.48-0.16c-0.18,0-0.33,0.05-0.46,0.16c-0.13,0.11-0.21,0.26-0.24,0.45L135.32,29.92L135.32,29.92z"/>
					<path class="st1" d="M137.44,31.09h-0.33v-2.89h0.33V31.09z"/>
					<path class="st1" d="M139.23,29.3c0.19-0.2,0.44-0.3,0.73-0.3c0.3,0,0.55,0.1,0.74,0.3c0.19,0.2,0.29,0.46,0.29,0.77
						c0,0.31-0.1,0.56-0.29,0.76c-0.19,0.2-0.44,0.3-0.74,0.3c-0.3,0-0.54-0.1-0.73-0.3c-0.19-0.2-0.29-0.45-0.29-0.76
						C138.94,29.76,139.03,29.5,139.23,29.3z M140.46,29.52c-0.13-0.14-0.3-0.21-0.5-0.21c-0.2,0-0.37,0.07-0.5,0.21
						s-0.2,0.32-0.2,0.55c0,0.22,0.07,0.39,0.2,0.53c0.13,0.14,0.3,0.21,0.5,0.21s0.37-0.07,0.5-0.21s0.2-0.31,0.2-0.53
						C140.66,29.85,140.6,29.67,140.46,29.52z"/>
					<path class="st1" d="M142.46,29.05h0.31l0.02,0.39c0.08-0.13,0.18-0.24,0.32-0.32s0.28-0.11,0.44-0.11
						c0.29,0,0.52,0.1,0.71,0.3c0.18,0.19,0.28,0.45,0.28,0.76c0,0.32-0.09,0.58-0.28,0.77s-0.43,0.29-0.73,0.29
						c-0.15,0-0.3-0.04-0.43-0.1c-0.14-0.07-0.24-0.17-0.32-0.31v1.33h-0.32V29.05z M144.01,30.62c0.13-0.13,0.2-0.31,0.2-0.54
						c0-0.23-0.06-0.4-0.19-0.54c-0.13-0.13-0.3-0.2-0.5-0.2c-0.21,0-0.37,0.07-0.5,0.21s-0.19,0.31-0.19,0.53
						c0,0.21,0.07,0.38,0.2,0.52c0.13,0.14,0.3,0.21,0.5,0.21C143.71,30.82,143.88,30.75,144.01,30.62z"/>
					<path class="st1" d="M147.78,30.76c-0.1,0.12-0.22,0.21-0.38,0.27c-0.16,0.06-0.31,0.09-0.48,0.09c-0.31,0-0.56-0.1-0.75-0.29
						c-0.19-0.19-0.29-0.45-0.29-0.78c0-0.31,0.1-0.56,0.29-0.76c0.19-0.2,0.44-0.3,0.74-0.3c0.32,0,0.57,0.1,0.76,0.31
						s0.26,0.5,0.23,0.89h-1.68c0.02,0.18,0.09,0.33,0.23,0.44c0.13,0.11,0.3,0.17,0.49,0.17c0.12,0,0.24-0.02,0.35-0.07
						c0.12-0.04,0.21-0.11,0.27-0.19L147.78,30.76L147.78,30.76z M147.58,29.92c-0.01-0.2-0.07-0.35-0.19-0.45
						c-0.12-0.11-0.28-0.16-0.48-0.16c-0.18,0-0.33,0.05-0.46,0.16c-0.13,0.11-0.21,0.26-0.24,0.45L147.58,29.92L147.58,29.92z"/>
					<path class="st1" d="M149.66,29.04l0.02,0.31c0.12-0.23,0.32-0.34,0.61-0.34c0.17-0.01,0.33,0.05,0.46,0.15l-0.15,0.29
						c-0.1-0.07-0.22-0.11-0.34-0.11c-0.16,0-0.3,0.06-0.41,0.17c-0.11,0.11-0.17,0.26-0.17,0.44v1.14h-0.33v-2.04L149.66,29.04
						L149.66,29.04z"/>
					<path class="st1" d="M153.33,29.5c-0.14-0.13-0.33-0.2-0.56-0.2c-0.14,0-0.26,0.02-0.35,0.07c-0.09,0.05-0.14,0.13-0.13,0.22
						c0,0.16,0.17,0.26,0.49,0.3c0.09,0.01,0.17,0.02,0.23,0.03c0.06,0.01,0.13,0.03,0.22,0.06c0.09,0.03,0.15,0.06,0.2,0.11
						c0.05,0.04,0.09,0.1,0.13,0.17s0.05,0.16,0.05,0.25c0,0.2-0.08,0.35-0.24,0.45c-0.16,0.11-0.35,0.16-0.59,0.16
						c-0.39,0-0.69-0.13-0.88-0.38l0.19-0.24c0.17,0.21,0.4,0.31,0.7,0.31c0.13,0,0.25-0.02,0.35-0.07c0.1-0.05,0.15-0.13,0.15-0.24
						c0-0.1-0.04-0.18-0.13-0.22s-0.22-0.08-0.4-0.1c-0.11-0.01-0.21-0.03-0.29-0.05c-0.08-0.02-0.16-0.05-0.24-0.1
						c-0.08-0.04-0.15-0.1-0.19-0.17s-0.07-0.16-0.07-0.27c0-0.14,0.04-0.25,0.12-0.35c0.08-0.09,0.18-0.16,0.3-0.2
						c0.12-0.04,0.24-0.06,0.38-0.05c0.31,0,0.56,0.09,0.75,0.27L153.33,29.5L153.33,29.5z"/>
				</g>
			</g>
		</g>
	</g>
</g>
<g>
</g>
<g>
</g>
<g>
</g>
<g>
</g>
<g>
</g>
</svg>
