<?xml version="1.0" encoding="utf-8"?>
<!-- Generator: Adobe Illustrator 23.0.2, SVG Export Plug-In . SVG Version: 6.00 Build 0)  -->
<svg version="1.1" id="Layer_1" xmlns="http://www.w3.org/2000/svg" xmlns:xlink="http://www.w3.org/1999/xlink" x="0px" y="0px"
	 viewBox="0 0 157 40" style="enable-background:new 0 0 157 40;" xml:space="preserve">
<style type="text/css">
	.st0{fill:#FCBB15;}
	.st1{fill:#161616;}
</style>
<g>
	<g>
		<path class="st0" d="M1.5,19.4V7.6c0-0.1,2.5-0.1,2.6-0.1c1.7,0,3.4,0.3,4.9,1.1c3.1,1.6,3.6,6.3,1.2,8.8
			C8.1,19.6,4.4,19.7,1.5,19.4z"/>
		<path class="st0" d="M32.5,1.4c-1,0-1.9,0-2.9,0c-1.5,0-3,0-4.5,0c-1.8,0-3.6,0-5.4,0c-1.8,0-3.5,0-5.3,0c-1.4,0-2.8,0-4.1,0
			c-0.7,0-1.3,0-2,0c0,0,0,0,0,0c6.5,0,11.6,4.3,12,10.9c0.2,4-1.5,7.9-4.6,10.3c-3.7,2.9-9.5,3.2-14,3.2c0,4.3,0,8.5,0,12.8
			c0.4,0,0.8,0,1.2,0c1.1,0,2.2,0,3.2,0c1.5,0,3.1,0,4.6,0c1.8,0,3.6,0,5.3,0c1.8,0,3.6,0,5.5,0c1.6,0,3.3,0,4.9,0
			c1.2,0,2.5,0,3.7,0c2,0,3.9-0.1,5.8-0.7c1.2-0.3,2.3-0.8,3.5-1.3c1.3-0.7,2.5-1.5,3.7-2.5c1.3-1.1,2.4-2.4,3.3-3.9
			c1-1.8,1.8-3.7,2.2-5.7c0.4-1.6,0.5-3.3,0.6-5c0-0.3,0-0.6,0-0.9c0-0.8,0-1.5-0.1-2.3c-0.1-1.1-0.3-2.1-0.6-3.2
			c-0.3-1.2-0.8-2.4-1.4-3.6c-0.7-1.3-1.5-2.4-2.5-3.5c-1.2-1.2-2.5-2.1-4-2.8c-1.8-0.9-3.8-1.4-5.9-1.7C33.8,1.5,33.2,1.4,32.5,1.4
			z M38.1,26.8c-1.9,3-5.2,4.4-8.6,4.9c-0.3,0-5.4,0.4-5.4,0c0,0,0-23.2,0-23.2c0-0.2,3.4-0.2,3.7-0.2c3.9,0.1,7.9,1.2,10.2,4.6
			C40.6,16.7,40.6,22.9,38.1,26.8z"/>
	</g>
	<g id="PRO_DEVS__x28__font:_Nexa__x29__00000026846720674204437320000003828971811172043919_">
		<path class="st0" d="M64.4,12.1c0.8,0.4,1.4,1,1.8,1.7s0.6,1.6,0.6,2.6s-0.2,1.9-0.6,2.6c-0.4,0.7-1,1.3-1.8,1.7
			c-0.8,0.4-1.7,0.6-2.8,0.6h-3.3v3.9h-3.2V11.5h6.5C62.7,11.5,63.6,11.7,64.4,12.1z M63.1,17.9c0.4-0.4,0.6-0.9,0.6-1.5
			s-0.2-1.1-0.6-1.5c-0.4-0.4-0.9-0.6-1.6-0.6h-3.2v4.2h3.2C62.2,18.5,62.7,18.3,63.1,17.9z"/>
		<path class="st0" d="M73.7,20.6h-1.8v4.5h-3.2V11.5h6.6c1,0,1.8,0.2,2.6,0.6c0.7,0.4,1.3,0.9,1.7,1.6s0.6,1.5,0.6,2.4
			c0,1-0.3,1.9-0.8,2.7s-1.3,1.3-2.3,1.6l3.8,4.8h-3.8L73.7,20.6z M76.5,14.7c-0.4-0.3-0.9-0.5-1.6-0.5h-3.1V18H75
			c0.7,0,1.2-0.2,1.6-0.5s0.5-0.8,0.5-1.4S76.9,15,76.5,14.7z"/>
		<path class="st0" d="M85.4,24.5c-1.1-0.6-2-1.4-2.6-2.5s-0.9-2.3-0.9-3.8s0.3-2.7,0.9-3.8s1.5-1.9,2.6-2.5
			c1.1-0.6,2.4-0.9,3.9-0.9s2.8,0.3,3.9,0.9s2,1.4,2.6,2.5c0.6,1.1,0.9,2.3,0.9,3.8c0,1.4-0.3,2.7-0.9,3.8s-1.5,1.9-2.6,2.5
			s-2.4,0.9-3.9,0.9S86.5,25.1,85.4,24.5z M91.4,22c0.6-0.4,1.1-0.9,1.5-1.5c0.3-0.6,0.5-1.4,0.5-2.3s-0.2-1.6-0.5-2.3
			c-0.3-0.6-0.8-1.1-1.5-1.5c-0.6-0.4-1.3-0.5-2.2-0.5s-1.5,0.2-2.2,0.5c-0.6,0.4-1.1,0.9-1.4,1.5c-0.3,0.6-0.5,1.4-0.5,2.3
			c0,0.9,0.2,1.6,0.5,2.3c0.3,0.6,0.8,1.1,1.4,1.5c0.6,0.4,1.3,0.5,2.2,0.5C90.1,22.6,90.8,22.4,91.4,22z"/>
		<path class="st0" d="M103.6,11.4h5c1.1,0,2.1,0.2,3,0.6s1.6,0.9,2.2,1.5c0.5,0.6,1,1.3,1.2,2.1s0.4,1.6,0.4,2.5
			c0,0.9-0.1,1.8-0.4,2.6c-0.3,0.8-0.7,1.5-1.2,2.2c-0.5,0.7-1.3,1.2-2.2,1.6c-0.9,0.4-1.9,0.6-3.1,0.6h-5V11.4L103.6,11.4z
			 M112.4,21.8c0.9-1,1.3-2.3,1.3-3.7c0-1.4-0.4-2.6-1.3-3.5c-0.9-1-2.2-1.5-3.8-1.5h-3.3v10.3h3.3
			C110.3,23.4,111.5,22.9,112.4,21.8z"/>
		<path class="st0" d="M118.2,11.5h9.6V13h-7.9v4.3h7.6v1.6h-7.6v4.6h8.2v1.6h-9.9L118.2,11.5L118.2,11.5z"/>
		<path class="st0" d="M131.3,11.5l4.6,11.6l4.7-11.6h1.9l-5.6,13.6h-1.8l-5.6-13.6C129.4,11.5,131.3,11.5,131.3,11.5z"/>
		<path class="st0" d="M151.4,13.1c-0.7-0.3-1.4-0.4-2.3-0.5c-1,0-1.8,0.2-2.5,0.6c-0.7,0.4-1.1,1-1.1,1.7c0,0.4,0.1,0.6,0.3,0.9
			c0.2,0.3,0.5,0.5,0.8,0.6c0.4,0.2,0.8,0.3,1.1,0.4c0.4,0.1,0.9,0.2,1.4,0.3c0.7,0.1,1.2,0.2,1.6,0.3c0.4,0.1,0.9,0.2,1.4,0.4
			s1,0.4,1.3,0.7s0.6,0.6,0.8,1.1c0.2,0.5,0.3,1,0.3,1.6c0,0.7-0.2,1.4-0.5,1.9c-0.3,0.5-0.8,1-1.3,1.3s-1.1,0.5-1.8,0.7
			s-1.3,0.2-2,0.2c-1.3,0-2.5-0.3-3.5-0.8c-1-0.5-1.8-1.3-2.3-2.4l1.4-0.8c0.4,0.8,1,1.4,1.8,1.8s1.7,0.6,2.5,0.6
			c0.4,0,0.9,0,1.3-0.1s0.8-0.2,1.2-0.4c0.4-0.2,0.7-0.4,0.9-0.8c0.2-0.3,0.4-0.8,0.4-1.2c0-0.4-0.1-0.8-0.3-1s-0.5-0.5-0.9-0.7
			c-0.4-0.2-0.8-0.3-1.2-0.4s-0.9-0.2-1.5-0.3c-0.6-0.1-1.1-0.2-1.6-0.3s-0.9-0.2-1.4-0.4s-0.9-0.4-1.2-0.7s-0.6-0.6-0.8-1
			s-0.3-0.9-0.3-1.4c0-0.7,0.1-1.3,0.5-1.8c0.3-0.5,0.7-0.9,1.3-1.2c0.5-0.3,1.1-0.5,1.7-0.6c0.6-0.1,1.2-0.2,1.8-0.2
			c1.2,0,2.2,0.2,3,0.5s1.6,1,2.1,1.9l-1.3,0.8C152.6,13.9,152,13.4,151.4,13.1z"/>
	</g>
	<g>
		<path class="st1" d="M55.2,29h0.6v0.3h-0.6v1.1c0,0.3,0.1,0.4,0.3,0.4c0.1,0,0.2,0,0.3-0.1l0.1,0.3c-0.1,0.1-0.3,0.1-0.4,0.1
			c-0.4,0-0.6-0.2-0.6-0.7v-1.1h-0.4V29h0.4v-0.6l0.3,0L55.2,29L55.2,29z"/>
		<path class="st1" d="M59,30.8c-0.1,0.1-0.2,0.2-0.4,0.3c-0.2,0.1-0.3,0.1-0.5,0.1c-0.3,0-0.6-0.1-0.8-0.3s-0.3-0.5-0.3-0.8
			c0-0.3,0.1-0.6,0.3-0.8c0.2-0.2,0.4-0.3,0.7-0.3c0.3,0,0.6,0.1,0.8,0.3s0.3,0.5,0.2,0.9h-1.7c0,0.2,0.1,0.3,0.2,0.4
			c0.1,0.1,0.3,0.2,0.5,0.2c0.1,0,0.2,0,0.3-0.1c0.1,0,0.2-0.1,0.3-0.2L59,30.8L59,30.8z M58.8,29.9c0-0.2-0.1-0.4-0.2-0.5
			s-0.3-0.2-0.5-0.2c-0.2,0-0.3,0-0.5,0.2c-0.1,0.1-0.2,0.3-0.2,0.5H58.8L58.8,29.9z"/>
		<path class="st1" d="M62.2,31.1l0-0.4C62.2,30.9,62,31,61.9,31s-0.3,0.1-0.4,0.1c-0.3,0-0.5-0.1-0.7-0.3s-0.3-0.5-0.3-0.8
			c0-0.3,0.1-0.6,0.3-0.8c0.2-0.2,0.4-0.3,0.7-0.3c0.2,0,0.3,0,0.4,0.1s0.2,0.2,0.3,0.3v-0.4h0.3v2L62.2,31.1L62.2,31.1z M61.5,29.3
			c-0.2,0-0.4,0.1-0.5,0.2c-0.1,0.1-0.2,0.3-0.2,0.5c0,0.2,0.1,0.4,0.2,0.5c0.1,0.1,0.3,0.2,0.5,0.2c0.1,0,0.3,0,0.3-0.1
			c0.1-0.1,0.2-0.1,0.2-0.2s0.1-0.2,0.1-0.3s0-0.2,0-0.3s-0.1-0.2-0.1-0.3c0-0.1-0.1-0.2-0.2-0.2C61.8,29.4,61.6,29.3,61.5,29.3
			L61.5,29.3z"/>
		<path class="st1" d="M64.2,29h0.3l0,0.3c0.1-0.1,0.1-0.2,0.2-0.3s0.2-0.1,0.3-0.1c0.2,0,0.3,0,0.4,0.1s0.2,0.2,0.3,0.3
			c0.1-0.1,0.2-0.3,0.3-0.3c0.1-0.1,0.3-0.1,0.4-0.1c0.3,0,0.5,0.1,0.6,0.2s0.2,0.4,0.2,0.7v1.2h-0.3v-1.2c0-0.2-0.1-0.3-0.1-0.4
			s-0.2-0.2-0.4-0.2c-0.2,0-0.3,0.1-0.4,0.2s-0.2,0.3-0.2,0.4v1.2h-0.3v-1.2c0-0.2-0.1-0.3-0.2-0.4c-0.1-0.1-0.2-0.2-0.4-0.2
			c-0.2,0-0.3,0.1-0.4,0.2s-0.2,0.3-0.2,0.4v1.2h-0.3L64.2,29L64.2,29z"/>
		<path class="st1" d="M71,29.3c0.2-0.2,0.4-0.3,0.7-0.3c0.3,0,0.6,0.1,0.7,0.3c0.2,0.2,0.3,0.5,0.3,0.8c0,0.3-0.1,0.6-0.3,0.8
			s-0.4,0.3-0.7,0.3c-0.3,0-0.5-0.1-0.7-0.3c-0.2-0.2-0.3-0.5-0.3-0.8C70.7,29.8,70.8,29.5,71,29.3z M72.3,29.5
			c-0.1-0.1-0.3-0.2-0.5-0.2s-0.4,0.1-0.5,0.2s-0.2,0.3-0.2,0.5c0,0.2,0.1,0.4,0.2,0.5c0.1,0.1,0.3,0.2,0.5,0.2s0.4-0.1,0.5-0.2
			s0.2-0.3,0.2-0.5C72.5,29.9,72.4,29.7,72.3,29.5z"/>
		<path class="st1" d="M74.4,31.1v-1.7h-0.4v-0.3h0.4v-0.2c0-0.2,0.1-0.4,0.2-0.5c0.1-0.1,0.3-0.2,0.5-0.2c0.2,0,0.3,0,0.4,0.1
			l-0.1,0.3c-0.1-0.1-0.2-0.1-0.3-0.1c-0.2,0-0.3,0.1-0.3,0.4v0.2h0.6v0.3h-0.6v1.7L74.4,31.1L74.4,31.1z"/>
		<path class="st1" d="M78.7,29H79l0,0.4c0.1-0.1,0.2-0.2,0.3-0.3s0.3-0.1,0.4-0.1c0.3,0,0.5,0.1,0.7,0.3c0.2,0.2,0.3,0.5,0.3,0.8
			c0,0.3-0.1,0.6-0.3,0.8s-0.4,0.3-0.7,0.3c-0.2,0-0.3,0-0.4-0.1c-0.1-0.1-0.2-0.2-0.3-0.3V32h-0.3C78.7,32,78.7,29,78.7,29z
			 M80.2,30.6c0.1-0.1,0.2-0.3,0.2-0.5c0-0.2-0.1-0.4-0.2-0.5c-0.1-0.1-0.3-0.2-0.5-0.2c-0.2,0-0.4,0.1-0.5,0.2S79,29.9,79,30.1
			c0,0.2,0.1,0.4,0.2,0.5c0.1,0.1,0.3,0.2,0.5,0.2C79.9,30.8,80.1,30.8,80.2,30.6z"/>
		<path class="st1" d="M82.5,29l0,0.3c0.1-0.2,0.3-0.3,0.6-0.3c0.2,0,0.3,0,0.5,0.1l-0.2,0.3c-0.1-0.1-0.2-0.1-0.3-0.1
			c-0.2,0-0.3,0.1-0.4,0.2s-0.2,0.3-0.2,0.4v1.1h-0.3v-2L82.5,29L82.5,29z"/>
		<path class="st1" d="M85.1,29.3c0.2-0.2,0.4-0.3,0.7-0.3c0.3,0,0.6,0.1,0.7,0.3c0.2,0.2,0.3,0.5,0.3,0.8c0,0.3-0.1,0.6-0.3,0.8
			s-0.4,0.3-0.7,0.3c-0.3,0-0.5-0.1-0.7-0.3c-0.2-0.2-0.3-0.5-0.3-0.8S84.8,29.5,85.1,29.3z M86.3,29.5c-0.1-0.1-0.3-0.2-0.5-0.2
			s-0.4,0.1-0.5,0.2s-0.2,0.3-0.2,0.5c0,0.2,0.1,0.4,0.2,0.5c0.1,0.1,0.3,0.2,0.5,0.2s0.4-0.1,0.5-0.2s0.2-0.3,0.2-0.5
			C86.5,29.9,86.4,29.7,86.3,29.5z"/>
		<path class="st1" d="M88.5,31.1v-1.7h-0.4v-0.3h0.4v-0.2c0-0.2,0.1-0.4,0.2-0.5c0.1-0.1,0.3-0.2,0.5-0.2c0.2,0,0.3,0,0.4,0.1
			l-0.1,0.3c-0.1-0.1-0.2-0.1-0.3-0.1c-0.2,0-0.3,0.1-0.3,0.4v0.2h0.6v0.3h-0.6v1.7L88.5,31.1L88.5,31.1z"/>
		<path class="st1" d="M92.5,30.8c-0.1,0.1-0.2,0.2-0.4,0.3c-0.2,0.1-0.3,0.1-0.5,0.1c-0.3,0-0.6-0.1-0.8-0.3s-0.3-0.5-0.3-0.8
			c0-0.3,0.1-0.6,0.3-0.8s0.4-0.3,0.7-0.3c0.3,0,0.6,0.1,0.8,0.3s0.3,0.5,0.2,0.9h-1.7c0,0.2,0.1,0.3,0.2,0.4
			c0.1,0.1,0.3,0.2,0.5,0.2c0.1,0,0.2,0,0.3-0.1c0.1,0,0.2-0.1,0.3-0.2L92.5,30.8L92.5,30.8z M92.3,29.9c0-0.2-0.1-0.4-0.2-0.5
			c-0.1-0.1-0.3-0.2-0.5-0.2c-0.2,0-0.3,0-0.5,0.2s-0.2,0.3-0.2,0.5H92.3L92.3,29.9z"/>
		<path class="st1" d="M95.3,29.5c-0.1-0.1-0.3-0.2-0.6-0.2c-0.1,0-0.3,0-0.3,0.1s-0.1,0.1-0.1,0.2c0,0.2,0.2,0.3,0.5,0.3
			c0.1,0,0.2,0,0.2,0c0.1,0,0.1,0,0.2,0.1c0.1,0,0.2,0.1,0.2,0.1c0.1,0,0.1,0.1,0.1,0.2s0.1,0.2,0.1,0.3c0,0.2-0.1,0.4-0.2,0.5
			c-0.2,0.1-0.3,0.2-0.6,0.2c-0.4,0-0.7-0.1-0.9-0.4l0.2-0.2c0.2,0.2,0.4,0.3,0.7,0.3c0.1,0,0.3,0,0.3-0.1s0.2-0.1,0.2-0.2
			c0-0.1,0-0.2-0.1-0.2s-0.2-0.1-0.4-0.1c-0.1,0-0.2,0-0.3,0c-0.1,0-0.2,0-0.2-0.1c-0.1,0-0.2-0.1-0.2-0.2S94,29.7,94,29.6
			c0-0.1,0-0.3,0.1-0.4c0.1-0.1,0.2-0.2,0.3-0.2s0.2-0.1,0.4,0c0.3,0,0.6,0.1,0.8,0.3L95.3,29.5L95.3,29.5z"/>
		<path class="st1" d="M98.3,29.5c-0.1-0.1-0.3-0.2-0.6-0.2c-0.1,0-0.3,0-0.3,0.1s-0.1,0.1-0.1,0.2c0,0.2,0.2,0.3,0.5,0.3
			c0.1,0,0.2,0,0.2,0c0.1,0,0.1,0,0.2,0.1c0.1,0,0.2,0.1,0.2,0.1c0.1,0,0.1,0.1,0.1,0.2s0.1,0.2,0.1,0.3c0,0.2-0.1,0.4-0.2,0.5
			c-0.2,0.1-0.3,0.2-0.6,0.2c-0.4,0-0.7-0.1-0.9-0.4l0.2-0.2c0.2,0.2,0.4,0.3,0.7,0.3c0.1,0,0.3,0,0.3-0.1s0.2-0.1,0.2-0.2
			c0-0.1,0-0.2-0.1-0.2s-0.2-0.1-0.4-0.1c-0.1,0-0.2,0-0.3,0c-0.1,0-0.2,0-0.2-0.1c-0.1,0-0.2-0.1-0.2-0.2S97,29.7,97,29.6
			c0-0.1,0-0.3,0.1-0.4c0.1-0.1,0.2-0.2,0.3-0.2s0.2-0.1,0.4,0c0.3,0,0.6,0.1,0.8,0.3L98.3,29.5L98.3,29.5z"/>
		<path class="st1" d="M100.1,28.2c0.1,0,0.1,0,0.2,0c0.1,0,0.1,0.1,0.1,0.2s0,0.2-0.1,0.2s-0.1,0-0.2,0c-0.1,0-0.1-0.1-0.1-0.2
			S100.1,28.3,100.1,28.2z M100.1,31.1h0.3v-2h-0.3V31.1z"/>
		<path class="st1" d="M102.2,29.3c0.2-0.2,0.4-0.3,0.7-0.3c0.3,0,0.6,0.1,0.7,0.3c0.2,0.2,0.3,0.5,0.3,0.8c0,0.3-0.1,0.6-0.3,0.8
			s-0.4,0.3-0.7,0.3c-0.3,0-0.5-0.1-0.7-0.3c-0.2-0.2-0.3-0.5-0.3-0.8S102,29.5,102.2,29.3z M103.4,29.5c-0.1-0.1-0.3-0.2-0.5-0.2
			s-0.4,0.1-0.5,0.2s-0.2,0.3-0.2,0.5c0,0.2,0.1,0.4,0.2,0.5c0.1,0.1,0.3,0.2,0.5,0.2s0.4-0.1,0.5-0.2s0.2-0.3,0.2-0.5
			C103.6,29.9,103.5,29.7,103.4,29.5z"/>
		<path class="st1" d="M105.4,29h0.3l0,0.3c0.2-0.2,0.4-0.4,0.7-0.4c0.3,0,0.5,0.1,0.6,0.3c0.2,0.2,0.2,0.4,0.2,0.7v1.1h-0.3V30
			c0-0.2-0.1-0.4-0.2-0.5s-0.3-0.2-0.4-0.2c-0.2,0-0.3,0.1-0.4,0.2s-0.2,0.3-0.2,0.5v1.1h-0.3L105.4,29L105.4,29z"/>
		<path class="st1" d="M110.4,31.1l0-0.4c-0.1,0.1-0.2,0.2-0.3,0.3s-0.3,0.1-0.4,0.1c-0.3,0-0.5-0.1-0.7-0.3s-0.3-0.5-0.3-0.8
			c0-0.3,0.1-0.6,0.3-0.8s0.4-0.3,0.7-0.3c0.2,0,0.3,0,0.4,0.1s0.2,0.2,0.3,0.3v-0.4h0.3v2L110.4,31.1L110.4,31.1z M109.7,29.3
			c-0.2,0-0.4,0.1-0.5,0.2c-0.1,0.1-0.2,0.3-0.2,0.5c0,0.2,0.1,0.4,0.2,0.5c0.1,0.1,0.3,0.2,0.5,0.2c0.1,0,0.3,0,0.3-0.1
			c0.1-0.1,0.2-0.1,0.2-0.2s0.1-0.2,0.1-0.3c0-0.1,0-0.2,0-0.3s-0.1-0.2-0.1-0.3c-0.1-0.1-0.1-0.2-0.2-0.2
			C110,29.4,109.9,29.3,109.7,29.3L109.7,29.3z"/>
		<path class="st1" d="M112.7,31.1h-0.3v-2.9h0.3V31.1z"/>
		<path class="st1" d="M116.4,28.2h0.3v2.9h-0.3V28.2z"/>
		<path class="st1" d="M118.2,28.5v-0.3h2.3v0.3h-1v2.6h-0.3v-2.6H118.2z"/>
		<path class="st1" d="M125.7,28.2v2.9h-0.3l0-0.4c-0.1,0.1-0.2,0.2-0.3,0.3s-0.3,0.1-0.4,0.1c-0.3,0-0.5-0.1-0.7-0.3
			s-0.3-0.5-0.3-0.8s0.1-0.6,0.3-0.8s0.4-0.3,0.7-0.3c0.2,0,0.3,0,0.4,0.1s0.2,0.2,0.3,0.3v-1.2L125.7,28.2L125.7,28.2z M124.7,29.3
			c-0.2,0-0.4,0.1-0.5,0.2c-0.1,0.1-0.2,0.3-0.2,0.5c0,0.2,0.1,0.4,0.2,0.5c0.1,0.1,0.3,0.2,0.5,0.2s0.4-0.1,0.5-0.2
			s0.2-0.3,0.2-0.5c0-0.2-0.1-0.4-0.2-0.5C125,29.4,124.9,29.3,124.7,29.3L124.7,29.3z"/>
		<path class="st1" d="M129.1,30.8c-0.1,0.1-0.2,0.2-0.4,0.3c-0.2,0.1-0.3,0.1-0.5,0.1c-0.3,0-0.6-0.1-0.8-0.3s-0.3-0.5-0.3-0.8
			c0-0.3,0.1-0.6,0.3-0.8s0.4-0.3,0.7-0.3c0.3,0,0.6,0.1,0.8,0.3s0.3,0.5,0.2,0.9h-1.7c0,0.2,0.1,0.3,0.2,0.4
			c0.1,0.1,0.3,0.2,0.5,0.2c0.1,0,0.2,0,0.4-0.1c0.1,0,0.2-0.1,0.3-0.2L129.1,30.8L129.1,30.8z M128.9,29.9c0-0.2-0.1-0.4-0.2-0.5
			c-0.1-0.1-0.3-0.2-0.5-0.2c-0.2,0-0.3,0-0.5,0.2s-0.2,0.3-0.2,0.5H128.9L128.9,29.9z"/>
		<path class="st1" d="M130.8,29l0.3,0.8l0.3,0.9l0.3-0.9l0.3-0.8h0.4l-0.8,2h-0.4l-0.8-2L130.8,29L130.8,29z"/>
		<path class="st1" d="M135.5,30.8c-0.1,0.1-0.2,0.2-0.4,0.3c-0.2,0.1-0.3,0.1-0.5,0.1c-0.3,0-0.6-0.1-0.8-0.3s-0.3-0.5-0.3-0.8
			c0-0.3,0.1-0.6,0.3-0.8c0.2-0.2,0.4-0.3,0.7-0.3c0.3,0,0.6,0.1,0.8,0.3s0.3,0.5,0.2,0.9h-1.7c0,0.2,0.1,0.3,0.2,0.4
			c0.1,0.1,0.3,0.2,0.5,0.2c0.1,0,0.2,0,0.4-0.1c0.1,0,0.2-0.1,0.3-0.2L135.5,30.8L135.5,30.8z M135.3,29.9c0-0.2-0.1-0.4-0.2-0.5
			c-0.1-0.1-0.3-0.2-0.5-0.2c-0.2,0-0.3,0-0.5,0.2s-0.2,0.3-0.2,0.5H135.3L135.3,29.9z"/>
		<path class="st1" d="M137.4,31.1h-0.3v-2.9h0.3V31.1z"/>
		<path class="st1" d="M139.2,29.3c0.2-0.2,0.4-0.3,0.7-0.3c0.3,0,0.6,0.1,0.7,0.3c0.2,0.2,0.3,0.5,0.3,0.8c0,0.3-0.1,0.6-0.3,0.8
			c-0.2,0.2-0.4,0.3-0.7,0.3s-0.5-0.1-0.7-0.3c-0.2-0.2-0.3-0.5-0.3-0.8S139,29.5,139.2,29.3z M140.5,29.5c-0.1-0.1-0.3-0.2-0.5-0.2
			s-0.4,0.1-0.5,0.2s-0.2,0.3-0.2,0.5c0,0.2,0.1,0.4,0.2,0.5c0.1,0.1,0.3,0.2,0.5,0.2s0.4-0.1,0.5-0.2s0.2-0.3,0.2-0.5
			C140.7,29.9,140.6,29.7,140.5,29.5z"/>
		<path class="st1" d="M142.5,29h0.3l0,0.4c0.1-0.1,0.2-0.2,0.3-0.3s0.3-0.1,0.4-0.1c0.3,0,0.5,0.1,0.7,0.3c0.2,0.2,0.3,0.5,0.3,0.8
			c0,0.3-0.1,0.6-0.3,0.8s-0.4,0.3-0.7,0.3c-0.1,0-0.3,0-0.4-0.1c-0.1-0.1-0.2-0.2-0.3-0.3V32h-0.3L142.5,29L142.5,29z M144,30.6
			c0.1-0.1,0.2-0.3,0.2-0.5c0-0.2-0.1-0.4-0.2-0.5c-0.1-0.1-0.3-0.2-0.5-0.2c-0.2,0-0.4,0.1-0.5,0.2s-0.2,0.3-0.2,0.5
			c0,0.2,0.1,0.4,0.2,0.5c0.1,0.1,0.3,0.2,0.5,0.2C143.7,30.8,143.9,30.8,144,30.6z"/>
		<path class="st1" d="M147.8,30.8c-0.1,0.1-0.2,0.2-0.4,0.3c-0.2,0.1-0.3,0.1-0.5,0.1c-0.3,0-0.6-0.1-0.8-0.3s-0.3-0.5-0.3-0.8
			c0-0.3,0.1-0.6,0.3-0.8c0.2-0.2,0.4-0.3,0.7-0.3c0.3,0,0.6,0.1,0.8,0.3s0.3,0.5,0.2,0.9h-1.7c0,0.2,0.1,0.3,0.2,0.4
			c0.1,0.1,0.3,0.2,0.5,0.2c0.1,0,0.2,0,0.4-0.1c0.1,0,0.2-0.1,0.3-0.2L147.8,30.8L147.8,30.8z M147.6,29.9c0-0.2-0.1-0.4-0.2-0.5
			c-0.1-0.1-0.3-0.2-0.5-0.2c-0.2,0-0.3,0-0.5,0.2s-0.2,0.3-0.2,0.5H147.6L147.6,29.9z"/>
		<path class="st1" d="M149.7,29l0,0.3c0.1-0.2,0.3-0.3,0.6-0.3c0.2,0,0.3,0,0.5,0.1l-0.1,0.3c-0.1-0.1-0.2-0.1-0.3-0.1
			c-0.2,0-0.3,0.1-0.4,0.2s-0.2,0.3-0.2,0.4v1.1h-0.3v-2L149.7,29L149.7,29z"/>
		<path class="st1" d="M153.3,29.5c-0.1-0.1-0.3-0.2-0.6-0.2c-0.1,0-0.3,0-0.4,0.1c-0.1,0-0.1,0.1-0.1,0.2c0,0.2,0.2,0.3,0.5,0.3
			c0.1,0,0.2,0,0.2,0s0.1,0,0.2,0.1c0.1,0,0.1,0.1,0.2,0.1c0.1,0,0.1,0.1,0.1,0.2s0.1,0.2,0.1,0.3c0,0.2-0.1,0.4-0.2,0.5
			c-0.2,0.1-0.4,0.2-0.6,0.2c-0.4,0-0.7-0.1-0.9-0.4l0.2-0.2c0.2,0.2,0.4,0.3,0.7,0.3c0.1,0,0.3,0,0.4-0.1s0.1-0.1,0.1-0.2
			c0-0.1,0-0.2-0.1-0.2s-0.2-0.1-0.4-0.1c-0.1,0-0.2,0-0.3,0c-0.1,0-0.2,0-0.2-0.1c-0.1,0-0.1-0.1-0.2-0.2s-0.1-0.2-0.1-0.3
			c0-0.1,0-0.3,0.1-0.4c0.1-0.1,0.2-0.2,0.3-0.2c0.1,0,0.2-0.1,0.4,0c0.3,0,0.6,0.1,0.8,0.3L153.3,29.5L153.3,29.5z"/>
	</g>
</g>
</svg>
